<svg height="512pt" viewBox="-26 0 512 512.00003" width="512pt" xmlns="http://www.w3.org/2000/svg"><path d="m186.195312 323.242188c-13.738281 12.886718-12.371093 42.324218 3.414063 71.679687 9.214844 18.347656 32.683594 40.789063 64 61.441406-14.132813 4.851563-28.667969 8.449219-43.433594 10.75-.085937-.082031-.257812-.167969-.34375-.339843-20.597656-14.957032-37.808593-34.089844-50.515625-56.148438-23.550781-43.949219-22.273437-88.148438 3.585938-112.214844 14.828125-12.996094 34.40625-19.210937 54.015625-17.152344 13.738281 1.195313 37.289062 5.972657 47.613281 13.738282v40.535156c-5.203125 0-21.332031-2.132812-24.574219-6.484375-6.371093-8.09375-15.84375-13.136719-26.113281-13.910156-1.277344-.085938-2.558594-.171875-3.753906-.171875-8.703125-.214844-17.191406 2.722656-23.894532 8.277344zm0 0" fill="#f44335"/><path d="m347.734375 411.050781c-12.796875 22.023438-30.0625 41.121094-50.691406 56.0625l-2.898438 1.792969-37.460937 23.210938c-1.027344.425781-2.050782.683593-3.074219 1.023437-3.667969 1.109375-7.421875 2.132813-11.179687 2.988281h-.082032c-3.839844.765625-7.683594 1.535156-11.605468 2.132813-17.773438 3.226562-35.785157 4.96875-53.847657 5.203125-3.667969 0-7.167969-.082032-10.664062-.253906-41.21875-1.878907-71.339844-15.191407-90.027344-39.679688-41.644531-54.613281-11.519531-148.820312 9.898437-199.167969l.511719-1.28125c4.296875.855469 8.671875 1.285157 13.054688 1.28125h23.550781c-21.757812 47.53125-52.050781 136.53125-19.878906 178.515625 13.394531 17.578125 36.777344 24.832032 63.230468 26.199219 12.757813.597656 25.546876.140625 38.230469-1.367187h.167969c1.707031-.167969 3.5-.339844 5.207031-.597657 14.765625-2.300781 29.300781-5.898437 43.433594-10.75 31.316406-20.652343 54.785156-43.007812 63.746094-61.015625 16.042969-29.78125 17.40625-59.21875 3.667969-72.105468-7.75-6.308594-17.71875-9.230469-27.648438-8.105469-2.28125.210937-4.539062.640625-6.742188 1.277343-7.722656 1.839844-14.570312 6.304688-19.371093 12.632813-3.269531 4.195313-8.332031 6.597656-13.652344 6.484375v-40.535156c9.617187-7.140625 20.894531-11.722656 32.769531-13.3125 1.277344-.167969 2.644532-.339844 3.925782-.425782 19.605468-2.046874 39.179687 4.167969 54.015624 17.152344 25.855469 24.066406 27.136719 68.265625 3.414063 112.640625zm0 0" fill="#c52828"/><path d="m221.523438 47.703125-24.148438 158.804687c-4.675781 33.207032-33.109375 57.890626-66.644531 57.855469h-31.0625c-4.382813.003907-8.757813-.425781-13.054688-1.28125-28.082031-5.53125-49.585937-28.234375-53.589843-56.574219l-24.148438-158.722656c-1.449219-9.832031 1.410156-19.816406 7.847656-27.390625 6.355469-7.503906 15.683594-11.839843 25.515625-11.859375h33.792969v34.132813h-33.792969l24.148438 158.71875c2.339843 16.585937 16.53125 28.921875 33.28125 28.929687h31.0625c16.75-.007812 30.941406-12.34375 33.28125-28.929687l24.148437-158.71875h-34.5625v-34.132813h34.5625c9.832032.019532 19.160156 4.355469 25.515625 11.859375 6.425781 7.546875 9.285157 17.5 7.847657 27.308594zm0 0" fill="#9e9e9e"/><path d="m431.019531 463.53125c-20.3125 26.539062-54.019531 39.933594-100.695312 39.933594-3.5 0-6.996094-.082032-10.582031-.253906h-.085938c-22.214844-1.097657-44.292969-4.183594-65.960938-9.214844l2.988282-1.878906 37.460937-23.210938 2.898438-1.792969c7.425781.941407 14.851562 1.621094 22.1875 1.964844h.425781c34.730469 1.707031 67.414062-4.097656 84.226562-26.199219 32.253907-42.324218 1.875-131.496094-19.96875-178.859375l13.566407-5.375 18.09375-7.167969c20.5625 45.398438 61.097656 152.320313 15.445312 212.054688zm0 0" fill="#c52828"/><path d="m443.734375 196.265625c.019531 21.859375-10.457031 42.398437-28.160156 55.210937-9.3125 6.816407-20.210938 11.132813-31.660157 12.542969-2.804687.34375-5.625.515625-8.449218.515625-3.539063.003906-7.078125-.253906-10.582032-.769531l-1.023437-.257813c-32.972656-5.644531-56.992187-34.351562-56.738281-67.804687.253906-33.449219 24.710937-61.789063 57.761718-66.933594 3.503907-.519531 7.042969-.773437 10.582032-.769531 37.703125 0 68.269531 30.5625 68.269531 68.265625zm0 0" fill="#607d8b"/><path d="m324.53125 411.050781c-12.683594 21.996094-29.835938 41.097657-50.347656 56.0625l-40.105469 25.003907c-1.015625.425781-2.039063.683593-3.054687 1.023437-7.4375 2.238281-15.023438 3.949219-22.699219 5.121094-14.207031 2.507812-28.550781 4.164062-42.957031 4.949219-40.917969-1.878907-70.828126-15.191407-89.378907-39.679688-41.335937-54.613281-11.433593-148.820312 9.832031-199.167969h32.964844c-21.609375 47.53125-51.679687 136.53125-19.738281 178.515625 16.851563 22.1875 32.152344 27.90625 66.722656 26.199219 12.667969.597656 25.363281.140625 37.953125-1.367187h.164063c1.707031-.167969 3.480469-.339844 5.171875-.597657 14.660156-2.300781 29.089844-5.898437 43.117187-10.75 31.097657-20.652343 54.390625-43.007812 63.285157-61.015625 15.929687-29.78125 17.289062-59.21875 3.640624-72.105468-7.671874-6.304688-17.574218-9.230469-27.441406-8.105469-2.269531.210937-4.511718.640625-6.699218 1.277343-4.488282-1.277343-9.386719 7.425782-14.394532 7.851563-8.53125.457031-16.871094 2.695313-24.484375 6.570313v-35.839844c11.757813-7.195313 24.941407-11.738282 38.632813-13.3125 13.550781 1.773437 26.25 7.605468 36.429687 16.726562 25.667969 24.066406 26.9375 68.265625 3.386719 112.640625zm0 0" fill="#f44335"/><path d="m406.1875 463.53125c-18.398438 24.488281-47.917969 37.800781-88.226562 39.679688h-.078126c-3.34375.171874-6.828124.253906-10.375.253906-21.957031-.285156-43.832031-2.742188-65.308593-7.335938h-.082031c-3.183594-.683594-6.359376-1.367187-9.703126-2.132812l2.925782-1.878906 39.585937-14.25c6.023438.765624 12.050781-9.386719 17.980469-8.960938 8.183594.566406 16.394531.625 24.585938.171875h.425781c34.03125 1.707031 66.054687-4.097656 82.535156-26.199219 31.570313-42.324218 1.839844-131.496094-19.570313-178.859375-2.742187.34375-5.507812.515625-8.277343.515625-3.472657.003906-6.941407-.253906-10.375-.769531l-2.167969.253906 1.167969-.511719s31.867187-7.421874 32.949219-4.863281c.335937.632813.621093 1.289063.851562 1.964844 20.804688 49.320313 53.171875 146.855469 11.15625 202.921875zm0 0" fill="#f44335"/><path d="m418.132812 196.265625c.132813 21.636719-9.902343 42.078125-27.09375 55.210937-8.320312 6.308594-18.039062 10.523438-28.332031 12.289063l-2.132812.253906 1.144531-.511719c-32.050781-6.265624-55.015625-34.585937-54.519531-67.242187-.492188-33.046875 22.988281-61.601563 55.507812-67.496094 32.484375 5.9375 55.921875 34.480469 55.425781 67.496094zm0 0" fill="#cfd8dc"/><g fill="#f44335"><path d="m409.597656 196.265625c0 18.851563-15.28125 34.132813-34.132812 34.132813-18.851563 0-34.132813-15.28125-34.132813-34.132813s15.28125-34.132813 34.132813-34.132813c18.851562 0 34.132812 15.28125 34.132812 34.132813zm0 0"/><path d="m59.734375 8.535156h17.066406c9.425781 0 17.066407 7.640625 17.066407 17.066406 0 9.425782-7.640626 17.066407-17.066407 17.066407h-17.066406zm0 0"/><path d="m153.597656 8.535156h17.066406v34.132813h-17.066406c-9.425781 0-17.066406-7.640625-17.066406-17.066407 0-9.425781 7.640625-17.066406 17.066406-17.066406zm0 0"/></g><path d="m24.617188 207.777344c4.085937 28.15625 23.527343 51.691406 50.40625 61.015625-22.117188 54.507812-47.71875 144.699219-5.597657 199.925781 21.972657 28.714844 58.128907 43.28125 107.46875 43.28125 18.53125-.210938 37.015625-1.992188 55.246094-5.324219 6.765625-1.074219 13.476563-2.5 20.09375-4.265625 25.617187 5.964844 51.792969 9.183594 78.089844 9.589844 49.332031 0 85.496093-14.566406 107.519531-43.289062 45.140625-59.109376 13.3125-157.464844-11.851562-214.75 27.820312-24.476563 34.164062-65.34375 15.0625-97.097657-19.097657-31.753906-58.171876-45.308593-92.832032-32.199219-34.660156 13.105469-54.988281 49.121094-48.296875 85.566407 6.6875 36.445312 38.484375 62.894531 75.539063 62.835937 1.035156 0 2.039062-.109375 3.066406-.152344 26.179688 58.648438 44.210938 131.140626 18.566406 164.792969-15.648437 20.523438-48.546875 24.398438-78.875 22.777344 15.011719-12.75 27.5625-28.140625 37.035156-45.40625 25.601563-47.921875 23.605469-96.171875-5.117187-122.929687-16.605469-14.605469-38.546875-21.632813-60.546875-19.390626-12.757812 1.046876-25.082031 5.121094-35.949219 11.878907-10.855469-6.753907-23.164062-10.828125-35.910156-11.878907-22.015625-2.261718-43.980469 4.773438-60.585937 19.40625-28.75 26.761719-30.820313 74.835938-5.402344 122.273438 9.503906 17.53125 22.167968 33.15625 37.351562 46.082031-29.652344 1.585938-63.0625-2.058593-78.914062-22.785156-25.523438-33.28125-7.46875-105.957031 18.644531-164.753906h2.011719c37.734375-.03125 69.699218-27.800781 75.007812-65.160157l24.097656-158.914062c1.785157-12.230469-1.78125-24.636719-9.785156-34.050781-7.964844-9.402344-19.660156-14.8359378-31.984375-14.855469h-34.578125c-14.136718 0-25.597656 11.460938-25.597656 25.601562 0 14.136719 11.460938 25.597657 25.597656 25.597657h24.644532l-22.671876 148.90625c-1.710937 12.394531-12.289062 21.632812-24.796874 21.660156h-31.148438c-12.511719-.03125-23.089844-9.273437-24.804688-21.667969l-22.664062-148.898437h24.644531c14.136719 0 25.597657-11.460938 25.597657-25.597657 0-14.140624-11.460938-25.601562-25.597657-25.601562h-34.578125c-12.324218.0195312-24.015625 5.445312-31.984375 14.847656-8.023437 9.464844-11.585937 21.925782-9.777343 34.203125zm291.117187-11.511719c0-32.988281 26.742187-59.730469 59.730469-59.730469 32.992187 0 59.734375 26.742188 59.734375 59.730469 0 32.992187-26.742188 59.734375-59.734375 59.734375-32.972656-.039062-59.695313-26.757812-59.730469-59.734375zm94.929687 251.785156c35.636719-46.746093 2.324219-138.582031-14.648437-177.859375 5.457031-1.496094 10.734375-3.597656 15.726563-6.265625 20.101562 46.789063 52.632812 141.910157 12.5 194.417969-24.992188 32.65625-73.660157 43.519531-144.023438 32.023438 6.09375-3.988282 11.964844-8.316407 17.578125-12.960938l1.851563-1.460938c10.246093 1.242188 20.558593 1.902344 30.882812 1.980469 38.109375 0 64.996094-10 80.132812-29.875zm-314.101562 0c18.269531 23.894531 53.582031 33.375 105.097656 28.460938.300782.070312.605469.125.910156.160156.574219 0 1.148438-.058594 1.707032-.171875l1.828125-.332031h.152343c1.640626-.160157 3.347657-.339844 4.976563-.578125h.066406c3.507813-.460938 34.585938-4.710938 46.660157-11.828125.050781 0 .078124-.09375.128906-.121094.050781-.023437.164062-.058594.238281-.109375 32.777344-21.640625 57.082031-45.089844 66.5625-64.101562 18.046875-33.503907 18.832031-66.613282 1.976563-82.375l-.050782-.050782c-9.710937-7.929687-22.191406-11.652344-34.660156-10.335937-12.46875 1.320312-23.894531 7.566406-31.738281 17.351562-1.792969 1.851563-4.261719 2.890625-6.835938 2.878907-2.578125-.011719-5.039062-1.074219-6.816406-2.9375-7.84375-10.097657-19.597656-16.398438-32.347656-17.351563-1.488281-.101563-2.972657-.195313-4.34375-.195313-10.882813-.253906-21.46875 3.539063-29.714844 10.640626-16.851563 15.753906-16.160156 48.640624 1.605469 81.734374 8.40625 16.671876 27.417968 36.265626 53.066406 55.054688-7.304688 1.785156-15.640625 3.304688-22.320312 4.269531-18.753907-13.757812-34.390626-31.316406-45.886719-51.535156-21.757813-40.59375-21.015625-80.605469 1.871093-101.894531 22.800782-19.113282 55.671876-20.296875 79.785157-2.867188 3.035156 2.273438 7.207031 2.273438 10.242187 0 24.109375-17.414062 56.960938-16.246094 79.769532 2.839844 22.902343 21.335938 23.566406 61.492188 1.613281 102.554688-12.1875 20.941406-28.660157 39.070312-48.34375 53.195312l-4.617188 3.660156c-6.5 5.542969-13.5 10.46875-20.90625 14.722656-11.617187 5.683594-24.085937 9.433594-36.914062 11.09375-17.296875 3.179688-34.832031 4.894532-52.421875 5.117188-43.742188 0-75.339844-12.3125-93.863282-36.582031-38.863281-50.917969-8.757812-142.667969 8.957032-185.820313 2.5625.246094 5.121094.410156 7.679687.410156h10.53125c-17.195312 40.414063-48.433593 129.65625-13.644531 175.050782zm157.011719-1.945312c-27.511719-18.832031-48.40625-39.175781-56.480469-55.210938-13.492188-25.097656-15.683594-51.488281-5.121094-61.347656 5.097656-4.152344 11.527344-6.3125 18.101563-6.082031 1.003906 0 2.089843.078125 2.941406.136718 7.863281.554688 15.132813 4.367188 20.054687 10.519532 4.9375 6.277344 12.480469 9.949218 20.464844 9.960937 7.988282.011719 15.539063-3.636719 20.496094-9.898437 4.910156-6.171875 12.171875-10.007813 20.035156-10.582032 7.542969-.863281 15.125 1.28125 21.09375 5.972657 9.214844 8.660156 10.316406 32.640625-5.496094 62.027343-7.6875 15.488282-28.484374 35.652344-56.054687 54.511719zm-99.976563-429.039063h8.535156v17.066406h-8.535156c-4.710937 0-8.53125-3.820312-8.53125-8.53125 0-4.714843 3.820313-8.535156 8.53125-8.535156zm-77.652344 0h.855469c4.710938 0 8.53125 3.820313 8.53125 8.535156 0 4.710938-3.820312 8.53125-8.53125 8.53125h-8.535156v-17.066406zm-52.71875 8.859375c4.722657-5.601562 11.671876-8.839843 18.996094-8.859375h8.976563v17.066406h-8.976563c-2.484375.003907-4.847656 1.085938-6.46875 2.972657-1.617187 1.886719-2.335937 4.382812-1.960937 6.839843l24.148437 158.722657c2.9375 20.757812 20.714844 36.1875 41.683594 36.171875h31.148438c20.964843.019531 38.742187-15.40625 41.675781-36.164063l24.15625-158.71875c.378906-2.460937-.339844-4.960937-1.957031-6.847656-1.621094-1.886719-3.984376-2.976563-6.472657-2.976563h-8.976562v-17.066406h8.976562c7.328125.019532 14.277344 3.261719 19.003907 8.859375 4.816406 5.664063 6.960937 13.121094 5.898437 20.476563l-24.160156 158.796875c-4.082031 29.003906-28.859375 50.59375-58.144531 50.671875h-31.148438c-3.269531-.015625-6.53125-.300782-9.753906-.851563-1.003906-.410156-2.078125-.628906-3.164063-.640625-23.789062-5.472656-41.761719-25.015625-45.226562-49.179687l-24.140625-158.648438c-1.09375-7.402343 1.050781-14.917969 5.886718-20.625zm0 0"/><path d="m418.132812 196.265625c0-23.5625-19.101562-42.664063-42.667968-42.664063-23.5625 0-42.664063 19.101563-42.664063 42.664063 0 23.566406 19.101563 42.667969 42.664063 42.667969 23.554687-.027344 42.640625-19.113282 42.667968-42.667969zm-68.265624 0c0-14.136719 11.460937-25.597656 25.597656-25.597656 14.140625 0 25.601562 11.460937 25.601562 25.597656 0 14.140625-11.460937 25.601563-25.601562 25.601563-14.136719 0-25.597656-11.460938-25.597656-25.601563zm0 0"/></svg>