<svg id="Capa_1" enable-background="new 0 0 511.517 511.517" height="512" viewBox="0 0 511.517 511.517" width="512" xmlns="http://www.w3.org/2000/svg"><g><path d="m50.976 504.017v-207.109c0-15.604 12.65-28.254 28.254-28.254 2.829 0 5.589.879 7.897 2.514l10.155 7.197c6.152 4.36 14.673 2.909 19.036-3.24 4.255-5.997 12.495-7.549 18.64-3.51l5.858 3.85c2.795 1.837 6.166 2.585 9.476 2.101 83.983-12.269 142.89-89.23 132.803-173.502l-.139-1.162c-1.448-12.094-5.18-23.757-10.547-34.691-15.68-31.946 7.84-60.713 7.84-60.713h44.623c-.448.359-.883.72-1.305 1.083-21.355 18.34-8.744 53.507 19.374 54.854 58.78 2.816 107.048 47.438 114.462 105.817l1.398 11.008c11.738 92.427-36.315 182.156-119.753 223.614-36.681 18.226-80.086 16.696-115.393-4.066l-96.958-57.016c-16.427-9.66-37.191 1.868-37.678 20.919l-1.556 140.305h-36.487z" fill="#dd636e"/><g><path d="m458.8 180.262-1.398-11.008c-6.757-53.21-47.457-94.985-99.12-104.099 38.501 16.558 66.853 52.495 72.393 96.116l1.398 11.009c11.738 92.428-36.315 182.156-119.753 223.614-23.569 11.71-49.911 15.251-75.1 10.789 32.468 13.964 69.722 13.145 101.826-2.806 83.439-41.459 131.492-131.188 119.754-223.615z" fill="#da4a54"/></g><path d="m339.353 253.134c16.464 10.566 33.944 7.698 55.719 6.025 4.032-.31 24.252-21.433 28.097-21.93 2.778-17.1 3.169-34.772.911-52.556l-1.399-11.011c-5.283-41.605-39.522-73.259-81.416-75.266-.088-.004-.177-.009-.265-.013-11.974-.621-22.007 8.864-21.767 20.852.452 22.576-2.864 56.897-22.202 93.076 4.09-.005 3.989 30.832 8.847 31.532 11.595 1.674 19.632.406 33.475 9.291z" fill="#f6f6f6"/><path d="m349.415 227.984c-19.642-12.606-38.53-15.689-52.386-15.672-4.738 8.864-10.424 17.837-17.268 26.778-14.184 18.531-43.634 35.764-71.471 48.876-24.935 11.744-26.575 46.579-2.816 60.551 19.406 11.412 35.92 21.123 35.92 21.123 13.239 7.785 28.355 11.899 43.712 11.899 13.24-.001 26.507-3.115 38.366-9.008 53.973-26.816 90.357-77.813 99.696-135.302-24.605 3.179-54.24 3.278-73.753-9.245z" fill="#ffd064"/><path d="m424.079 184.673-1.399-11.011c-5.283-41.605-39.522-73.259-81.416-75.266-.088-.004-.177-.009-.265-.013-2.748-.143-5.391.253-7.834 1.083 34.962 7.79 62.021 36.678 66.669 73.278l1.399 11.011c2.259 17.783 1.867 35.456-.911 52.556-.146.9-.319 1.793-.478 2.69 7.955-.133 15.871-.809 23.324-1.772 2.778-17.1 3.17-34.772.911-52.556z" fill="#dddaec"/><path d="m399.844 239.001c-10.024 56.384-46.089 106.215-99.218 132.611-9.473 4.707-19.844 7.635-30.383 8.626 4.891.857 9.863 1.3 14.862 1.3 13.24-.001 26.507-3.115 38.366-9.008 53.973-26.816 90.357-77.813 99.696-135.302-7.452.964-15.367 1.641-23.323 1.773z" fill="#e7a561"/><circle cx="354.02" cy="407.355" fill="#b3e59f" r="73.771"/><path d="m354.02 333.583c-4.263 0-8.435.382-12.5 1.076 34.786 5.94 61.272 36.216 61.272 72.696s-26.485 66.755-61.272 72.696c4.065.694 8.237 1.076 12.5 1.076 40.743 0 73.771-33.029 73.771-73.772.001-40.743-33.028-73.772-73.771-73.772z" fill="#95d6a4"/><path d="m393.092 390.818h-18.232c-2.377 0-4.303-1.927-4.303-4.303v-18.232c0-2.377-1.927-4.303-4.303-4.303h-24.467c-2.377 0-4.303 1.927-4.303 4.303v18.232c0 2.377-1.927 4.303-4.303 4.303h-18.232c-2.377 0-4.303 1.927-4.303 4.303v24.467c0 2.377 1.927 4.303 4.303 4.303h18.232c2.377 0 4.303 1.927 4.303 4.303v18.232c0 2.377 1.927 4.303 4.303 4.303h24.467c2.377 0 4.303-1.927 4.303-4.303v-18.232c0-2.377 1.927-4.303 4.303-4.303h18.232c2.377 0 4.303-1.927 4.303-4.303v-24.467c0-2.376-1.926-4.303-4.303-4.303z" fill="#f6f6f6"/><g><path d="m466.24 179.318-1.397-11.01c-7.889-62.111-59.005-109.367-121.544-112.363-12.002-.575-19.037-8.81-21.618-16.324-2.504-7.292-2.041-17.779 6.773-25.35.356-.307.724-.611 1.102-.914 3.235-2.586 3.761-7.306 1.174-10.541-2.584-3.234-7.304-3.76-10.541-1.174-.519.414-1.021.832-1.509 1.251-12.134 10.421-16.42 26.361-11.186 41.601 5.252 15.288 19.024 25.664 35.087 26.434 55.252 2.647 100.412 44.397 107.381 99.271l1.397 11.01c7.403 58.287-9.844 117.051-47.393 162.076-5.32-4.156-11.168-7.666-17.426-10.409 36.735-42.541 51.572-97.247 44.979-149.147l-1.399-11.01c-3.415-26.894-18.27-50.966-40.754-66.046-3.441-2.308-8.1-1.39-10.406 2.051-2.308 3.44-1.389 8.1 2.051 10.406 18.884 12.665 31.359 32.886 34.229 55.479l1.399 11.011c1.893 14.903 1.871 29.957-.059 44.831-27.842 2.914-49.588-.096-63.114-8.777-16.231-10.417-32.008-14.683-44.68-16.172 15.43-33.51 18.373-65.044 17.945-86.415-.072-3.619 1.316-6.996 3.91-9.509 2.666-2.583 6.19-3.896 9.942-3.705l.321.017c4.771.229 9.543.893 14.188 1.972 4.033.941 8.065-1.572 9.003-5.606s-1.571-8.065-5.606-9.003c-5.521-1.284-11.195-2.073-16.892-2.346l-.209-.012c-7.863-.411-15.574 2.477-21.185 7.91-5.618 5.442-8.626 12.753-8.469 20.582.818 40.966-11.846 81.073-37.929 115.146-7.297 9.534-19.872 19.672-37.378 30.13-3.556 2.124-4.716 6.729-2.592 10.285 2.125 3.556 6.73 4.716 10.285 2.592 19.145-11.438 33.14-22.84 41.596-33.89 5.789-7.562 11.054-15.526 15.688-23.728 11.566.593 27.457 3.783 43.96 14.374 15.897 10.203 38.92 14.052 68.54 11.481-6.762 30.754-21.488 58.895-42.994 82.072-5.45-1.156-11.1-1.765-16.89-1.765-32.883 0-61.267 19.63-74.049 47.786-12.232-.804-24.204-4.48-34.775-10.696l-35.92-21.123c-8.703-5.118-13.624-14.19-13.163-24.269.462-10.105 6.209-18.716 15.374-23.032 1.731-.816 3.47-1.647 5.211-2.494 3.725-1.812 5.276-6.3 3.465-10.025s-6.298-5.276-10.025-3.465c-1.685.819-3.366 1.625-5.043 2.414-14.286 6.729-23.245 20.156-23.966 35.917-.72 15.733 6.96 29.896 20.544 37.884l35.92 21.123c11.421 6.716 24.216 10.941 37.368 12.381-1.446 6.058-2.211 12.376-2.211 18.87 0 .337.002.673.006 1.008-15.93-1.75-31.482-6.893-45.3-15.019l-96.958-57.016c-10.026-5.897-22.089-6.046-32.258-.4-10.172 5.647-16.422 15.962-16.719 27.593l-.003.108-1.556 140.305c-.046 4.142 3.275 7.537 7.417 7.583h.085c4.103 0 7.452-3.304 7.498-7.417l1.555-140.246c.177-6.243 3.54-11.777 9.003-14.811 5.479-3.043 11.972-2.962 17.374.215l96.958 57.016c16.579 9.75 35.365 15.706 54.526 17.315 7.543 37.062 40.387 65.038 79.643 65.038 13.758 0 27.368-3.516 39.358-10.166 3.622-2.009 4.93-6.574 2.921-10.196-2.01-3.623-6.575-4.933-10.196-2.921-9.77 5.419-20.864 8.283-32.083 8.283-36.542 0-66.271-29.729-66.271-66.271s29.729-66.271 66.271-66.271 66.271 29.729 66.271 66.271c0 14.728-4.742 28.68-13.715 40.349-2.525 3.283-1.91 7.992 1.374 10.517 3.282 2.525 7.992 1.909 10.517-1.374 11.007-14.313 16.824-31.428 16.824-49.491 0-20.601-7.705-39.435-20.383-53.775 40.612-48.309 59.297-111.543 51.331-174.264z"/><path d="m92.945 284.485c9.514 6.742 22.742 4.489 29.49-5.02 1.928-2.718 5.618-3.412 8.403-1.582l5.858 3.851c4.333 2.848 9.546 4.005 14.679 3.254 42.563-6.218 80.403-28.454 106.549-62.612s37.729-76.491 32.616-119.205l-.139-1.159c-1.487-12.426-5.275-24.91-11.261-37.104-13.3-27.096 6.097-51.647 6.914-52.66 2.621-3.206 2.147-7.932-1.06-10.554-3.205-2.619-7.931-2.147-10.554 1.06-1.084 1.326-26.366 32.907-8.767 68.764 5.238 10.673 8.547 21.533 9.833 32.281l.139 1.159c4.646 38.805-5.879 77.268-29.634 108.302s-58.134 51.237-96.806 56.888c-1.493.214-3.013-.119-4.272-.947l-5.857-3.851c-9.569-6.288-22.252-3.901-28.876 5.438-1.964 2.768-5.812 3.424-8.583 1.461l-10.156-7.197c-3.597-2.549-7.826-3.896-12.233-3.896-19.715 0-35.754 16.04-35.754 35.755v207.108c0 4.143 3.357 7.5 7.5 7.5s7.5-3.357 7.5-7.5v-207.11c0-11.444 9.311-20.755 20.755-20.755 1.282 0 2.514.393 3.56 1.134z"/><path d="m393.093 383.318h-15.036v-15.035c0-6.508-5.295-11.803-11.803-11.803h-24.467c-6.509 0-11.804 5.295-11.804 11.803v15.035h-15.035c-6.508 0-11.803 5.295-11.803 11.804v24.467c0 6.508 5.295 11.803 11.803 11.803h15.035v15.036c0 6.508 5.295 11.803 11.804 11.803h24.467c6.508 0 11.803-5.295 11.803-11.803v-15.036h15.036c6.508 0 11.803-5.295 11.803-11.803v-24.467c-.001-6.509-5.296-11.804-11.803-11.804zm-3.198 33.073h-15.035c-6.509 0-11.804 5.295-11.804 11.804v15.035h-18.073v-15.035c0-6.509-5.295-11.804-11.803-11.804h-15.035v-18.073h15.035c6.508 0 11.803-5.295 11.803-11.803v-15.035h18.073v15.035c0 6.508 5.295 11.803 11.804 11.803h15.035z"/></g></g></svg>