<?xml version="1.0" encoding="iso-8859-1"?>
<!-- Generator: Adobe Illustrator 19.0.0, SVG Export Plug-In . SVG Version: 6.00 Build 0)  -->
<svg version="1.1" id="Capa_1" xmlns="http://www.w3.org/2000/svg" xmlns:xlink="http://www.w3.org/1999/xlink" x="0px" y="0px"
	 viewBox="0 0 402.548 402.548" style="enable-background:new 0 0 402.548 402.548;" xml:space="preserve">
<path style="fill:#DDDDDD;" d="M103.577,6.601c-29.085,0-48.275,33.403-48.275,74.605s19.19,171.155,48.275,171.155
	c16.968,0,18.896-107.916,41.69-108.015c27.184,0.099,24.723,108.015,41.69,108.015c29.085,0,48.275-129.949,48.275-171.155
	s-19.19-74.605-48.275-74.605c-13.896,0-27.795,13.165-41.69,13.165S117.473,6.601,103.577,6.601z"/>
<path d="M186.961,258.959c-13.025,0-16.534-19.883-21.832-49.981c-3.567-20.268-10.213-57.999-19.886-58.033
	c-6.799,0.027-14.739,39.735-17.725,54.682c-6.431,32.119-10.677,53.333-23.945,53.333c-39.748,0-54.873-151.385-54.873-177.753
	C48.701,34.154,71.782,0,103.574,0c8.434,0,16.179,3.669,23.675,7.219c6.455,3.058,12.554,5.946,18.019,5.946
	c5.461,0,11.561-2.888,18.019-5.946C170.779,3.669,178.527,0,186.961,0c31.792,0,54.873,34.154,54.873,81.207
	C241.834,107.578,226.71,258.959,186.961,258.959z M103.574,13.199c-23.76,0-41.673,29.235-41.673,68.007
	c0,53.623,22.279,161.475,40.881,164.489c4.134-4.39,8.721-27.317,11.786-42.656c7.001-34.997,13.046-65.215,30.672-65.294
	c20.753,0.072,26.921,35.082,32.887,68.943c2.447,13.892,6.093,34.604,9.714,38.99c18.586-3.345,40.793-110.937,40.793-164.475
	c0-38.769-17.913-68.007-41.673-68.007c-5.468,0-11.568,2.891-18.026,5.949c-7.492,3.546-15.241,7.216-23.668,7.216
	c-8.434,0-16.179-3.669-23.675-7.219C115.142,16.087,109.042,13.199,103.574,13.199z"/>
<path d="M77.001,68.041c-3.772,0-6.827-3.058-6.827-6.827c0-22.586,18.374-40.96,40.96-40.96c3.772,0,6.827,3.058,6.827,6.827
	s-3.055,6.827-6.827,6.827c-15.06,0-27.307,12.25-27.307,27.307C83.828,64.983,80.776,68.041,77.001,68.041z"/>
<path style="fill:#FFDD95;" d="M89.118,286.908c-7.229,5.298-8.632,15.609-4.017,23.293l19.261,32.055
	c9.496,15.804,30.003,20.917,45.804,11.421l0.645-0.389l-36.895-61.402C108.776,283.324,97.413,280.832,89.118,286.908z"/>
<path d="M133.034,365.257c-13.667,0-26.993-6.953-34.526-19.487l-19.261-32.055c-6.56-10.916-4-25.112,5.84-32.317l0,0
	c5.533-4.052,12.254-5.553,18.879-4.198c6.574,1.324,12.332,5.393,15.8,11.165l36.895,61.406c1.939,3.226,0.901,7.414-2.321,9.359
	l-0.642,0.386C147.227,363.404,140.09,365.254,133.034,365.257z M99.256,290.379c-2.161,0-4.273,0.696-6.1,2.034l0,0
	c-4.198,3.072-5.168,9.342-2.202,14.271l19.261,32.055c6.461,10.755,19.374,15.288,30.867,11.612l-33.021-54.955
	c-1.512-2.526-3.925-4.236-6.786-4.813C100.601,290.447,99.928,290.379,99.256,290.379z M89.122,286.908h0.068H89.122z"/>
<path style="fill:#FFDD95;" d="M328.369,305.251l-76.95-0.171c0,0-98.512-53.221-113.193-35.424s39.233,43.233,39.233,43.233
	l-21.487,13.227l-70.673,1.253l-35.086-18.108c-6.721-3.468-15.124-0.877-18.702,5.666l-3.465,6.335
	c-3.608,6.598-1.106,14.8,5.601,18.33l47.824,25.167l79.555,10.284c0,0,30.474,19.347,164.308-6.158"/>
<path d="M209.954,388.956c-32.58,0.003-46.486-5.065-51.046-7.308l-78.305-10.127c-0.806-0.102-1.587-0.352-2.307-0.73
	l-47.828-25.167c-4.888-2.57-8.455-6.874-10.032-12.121c-1.574-5.212-1-10.728,1.628-15.52l3.468-6.339
	c5.352-9.813,17.835-13.595,27.819-8.455l33.553,17.316l67.079-1.191l9.639-5.936c-12.728-7.182-31.321-19.743-34.314-33.12
	c-1.212-5.417,0.048-10.592,3.645-14.954c16.2-19.651,88.252,15.797,120.187,32.945l75.24,0.167c3.772,0.01,6.82,3.069,6.813,6.844
	c-0.007,3.765-3.065,6.81-6.827,6.81c-0.007,0-0.007,0-0.014,0l-76.954-0.171c-1.126-0.003-2.239-0.283-3.232-0.819
	c-62.327-33.666-100.707-41.902-104.68-37.089c-1.048,1.266-1.099,2.198-0.86,3.287c2.007,8.967,23.279,22.607,37.741,29.43
	c2.266,1.065,3.768,3.294,3.901,5.792c0.14,2.502-1.099,4.881-3.232,6.192l-21.487,13.227c-1.041,0.642-2.232,0.99-3.461,1.014
	l-70.666,1.253c-1.161-0.02-2.246-0.239-3.253-0.761l-35.086-18.108c-3.379-1.744-7.765-0.44-9.574,2.871l-3.475,6.339
	c-0.847,1.556-1.041,3.342-0.532,5.024c0.519,1.717,1.7,3.13,3.328,3.983l46.739,24.596l78.333,10.131
	c0.993,0.126,1.939,0.471,2.785,1.007c0.16,0.082,32.188,17.138,159.365-7.1c3.755-0.693,7.281,1.731,7.987,5.431
	c0.707,3.703-1.727,7.277-5.427,7.984C273.042,385.799,235.677,388.956,209.954,388.956z"/>
<rect x="321.525" y="279.678" style="fill:#FFFFFF;" width="54.613" height="116.053"/>
<path d="M376.156,402.548h-54.613c-3.772,0-6.827-3.058-6.827-6.827V279.668c0-3.768,3.055-6.827,6.827-6.827h54.613
	c3.772,0,6.827,3.058,6.827,6.827v116.053C382.982,399.49,379.927,402.548,376.156,402.548z M328.369,388.895h40.96v-102.4h-40.96
	V388.895z"/>
<g>
</g>
<g>
</g>
<g>
</g>
<g>
</g>
<g>
</g>
<g>
</g>
<g>
</g>
<g>
</g>
<g>
</g>
<g>
</g>
<g>
</g>
<g>
</g>
<g>
</g>
<g>
</g>
<g>
</g>
</svg>
