<svg height="484pt" viewBox="-3 0 484 484.584" width="484pt" xmlns="http://www.w3.org/2000/svg"><path d="m235.925781 155.566406c-62.960937 0-114 51.042969-114 114v57c0 .234375.015625.464844.015625.699219h-6.378906c-8.195312 0-14.839844 6.644531-14.839844 14.839844 0 8.195312 6.644532 14.839843 14.839844 14.839843h10.488281c10.144531 36.765626 38.222657 66.066407 74.246094 77.914063v45.726563h91.785156v-54.824219c34.53125-19.589844 57.84375-56.660157 57.84375-99.195313v-57c0-62.957031-51.042969-114-114-114zm0 0" fill="#f9cfcf"/><path d="m325.453125 244.269531h.007813c-1.027344-16.90625-13.792969-25.890625-17.453126-28.132812-2.089843-13.199219-13.984374-23.332031-28.390624-23.332031-.6875 0-1.363282.054687-2.042969.097656-4.21875-10.144532-14.574219-17.332032-26.703125-17.332032-6.390625 0-12.273438 2.015626-17.050782 5.382813-3.917968-1.914063-8.347656-3.011719-13.050781-3.011719-11.402343 0-21.226562 6.355469-25.875 15.542969-.402343.375-.722656.683594-.960937.921875-.636719-.039062-1.269532-.09375-1.914063-.09375-15.789062 0-28.59375 12.160156-28.734375 27.207031-8.085937 4.859375-13.480468 13.433594-13.480468 23.230469 0 14.316406 11.480468 26.058594 26.128906 27.324219l.011718.125s9.574219 2.078125 19.230469-.574219c3.332031 3.484375 13.289063 11.988281 31.050781 11.988281 4.101563 0 8.402344-.46875 12.828126-1.40625l3.933593-.894531c5.640625 3.816406 15.683594 4.953125 20.195313 5.277344.226562.007812.957031.007812.957031.007812.71875.027344 1.453125.046875 2.203125.046875 2.871094 0 5.796875-.242187 8.628906-.707031 4.664063-.683594 8.921875-1.890625 12.664063-3.582031 1.378906.207031 2.59375 1.015625 3.269531 2.207031l9.382812 16.488281c.371094.65625.828126 1.246094 1.316407 1.808594 2.238281 3.824219 6.339843 6.175781 10.769531 6.175781h.957031c6.890625 0 12.476563-5.585937 12.476563-12.476562v-48.457032c-.007813-1.304687-.128906-2.582031-.355469-3.832031zm0 0" fill="#f9a7a7"/><g fill="#3762cc"><path d="m160.125 324.019531c-5.246094 0-9.5-4.253906-9.5-9.5v-15.199219c0-5.246093 4.253906-9.5 9.5-9.5s9.5 4.253907 9.5 9.5v15.199219c0 5.246094-4.253906 9.5-9.5 9.5zm0 0"/><path d="m235.925781 444.566406c-51.878906 0-97.863281-34.230468-112.878906-83.621094h-7.480469c-10.386718 0-18.84375-8.453124-18.84375-18.839843s8.457032-18.839844 18.84375-18.839844h2.359375v-53.699219c0-65.0625 52.9375-118 118-118 65.066407 0 118 52.9375 118 118v57c0 65.066406-52.9375 118-118 118zm-120.363281-113.300781c-5.976562 0-10.839844 4.863281-10.839844 10.839844 0 5.976562 4.863282 10.839843 10.839844 10.839843h10.484375c1.800781 0 3.378906 1.203126 3.855469 2.9375 13.109375 47.503907 56.707031 80.683594 106.023437 80.683594 60.652344 0 110-49.347656 110-110v-57c0-60.65625-49.347656-110-110-110-60.65625 0-110 49.34375-110 110l.015625 57.664063c.007813 1.066406-.40625 2.089843-1.160156 2.847656-.75.761719-1.773438 1.1875-2.839844 1.1875zm0 0"/><path d="m313.324219 313.039062h-.957031c-5.703126 0-11.039063-2.992187-14.023438-7.832031-.628906-.746093-1.125-1.445312-1.539062-2.179687l-9.269532-16.285156c-3.636718 1.460937-7.660156 2.523437-11.988281 3.15625-3.773437.625-7.804687.859374-11.558594.699218-.015625.003906-.703125 0-.933593-.003906-5.296876-.382812-14.460938-1.527344-20.765626-5.019531l-2.359374.539062c-4.730469 1.003907-9.324219 1.503907-13.707032 1.503907-16.914062 0-27.394531-7.15625-32.261718-11.582032-9.636719 2.03125-18.46875.167969-18.867188.082032-.1875-.042969-.363281-.09375-.535156-.15625-16.464844-1.910157-28.757813-15.15625-28.757813-31.203126 0-10.1875 5.039063-19.558593 13.582031-25.472656 1.328126-16.164062 15.511719-28.964844 32.632813-28.964844h.035156c5.761719-10.140624 16.621094-16.375 28.710938-16.375 4.398437 0 8.660156.832032 12.691406 2.472657 5.230469-3.175781 11.203125-4.84375 17.410156-4.84375 12.484375 0 23.652344 6.683593 29.199219 17.242187 15.203125.203125 28.402344 10.71875 31.546875 24.902344 5.34375 3.652344 16.726563 13.347656 17.824219 30.128906.242187 1.425782.363281 2.859375.363281 4.261719v48.457031c.003906 9.082032-7.386719 16.472656-16.472656 16.472656zm-25.691407-34.683593c.203126 0 .402344.015625.605469.046875 2.621094.402344 4.859375 1.925781 6.140625 4.1875l9.378906 16.484375c.199219.351562.46875.71875.855469 1.160156.164063.191406.3125.394531.4375.609375 1.515625 2.589844 4.320313 4.199219 7.316407 4.199219h.957031c4.671875 0 8.476562-3.804688 8.476562-8.476563v-48.460937c0-1.019531-.097656-2.074219-.285156-3.128907-.039063-.210937-.058594-.421874-.0625-.632812-.976563-14.769531-12.132813-22.707031-15.539063-24.792969-1-.609375-1.679687-1.628906-1.863281-2.785156-1.796875-11.375-12.304687-19.953125-24.4375-19.953125-.515625 0-1.023437.039062-1.535156.074219l-.238281.015625c-1.699219.109375-3.304688-.871094-3.960938-2.457032-3.757812-9.035156-12.789062-14.871093-23.011718-14.871093-5.332032 0-10.429688 1.609375-14.742188 4.652343-1.195312.839844-2.753906.96875-4.0625.328126-3.542969-1.734376-7.347656-2.609376-11.296875-2.609376-9.449219 0-18.203125 5.238282-22.304687 13.347657-.214844.425781-.503907.8125-.855469 1.136719-.351563.324218-.628907.59375-.832031.796874-.816407.820313-1.953126 1.246094-3.09375 1.175782l-.382813-.023438c-.421875-.027344-.847656-.0625-1.277344-.0625-13.523437 0-24.621093 10.425782-24.734375 23.246094-.015625 1.390625-.75 2.675781-1.941406 3.390625-7.226562 4.339844-11.542969 11.742187-11.542969 19.804687 0 12.195313 9.660157 22.230469 22.472657 23.335938.464843.042969.910156.164062 1.320312.347656 2.347656.378906 9.492188 1.257813 16.511719-.667968 1.414062-.394532 2.9375.027343 3.953125 1.089843 3.089844 3.234375 12.019531 10.753907 28.164062 10.753907 3.824219 0 7.863282-.441407 11.992188-1.320313l3.882812-.882813c1.082032-.246093 2.207032-.03125 3.125.589844 3.394532 2.296875 10.214844 4.015625 18.242188 4.601563.035156-.003907.660156-.003907.667968-.003907.832032.03125 1.507813.042969 2.203126.042969 2.652343 0 5.339843-.21875 7.980468-.652343 4.359375-.640626 8.257813-1.742188 11.660156-3.28125.527344-.234376 1.089844-.355469 1.65625-.355469zm0 0"/><path d="m292.082031 484.585938h-91.785156c-2.207031 0-4-1.792969-4-4v-45.722657c0-1.285156.613281-2.488281 1.652344-3.242187 1.039062-.75 2.378906-.957032 3.597656-.558594 11.101563 3.652344 22.667969 5.503906 34.375 5.503906 18.976563 0 37.714844-4.941406 54.183594-14.285156 1.242187-.703125 2.757812-.691406 3.988281.023438 1.230469.714843 1.984375 2.035156 1.984375 3.457031v54.824219c.003906 2.207031-1.785156 4-3.996094 4zm-87.785156-8h83.785156v-44.179688c-16.167969 7.972656-34.058593 12.160156-52.15625 12.160156-10.726562 0-21.339843-1.445312-31.628906-4.308594zm0 0"/></g><path d="m409.007812 3.996094h-88.667968c-8.835938 0-16 7.164062-16 16v71.644531l-15.828125 42.964844c-1.179688 3.203125 1.933593 6.316406 5.136719 5.136719l40.921874-15.078126h74.4375c8.835938 0 16-7.160156 16-16v-88.667968c0-8.835938-7.164062-16-16-16zm0 0" fill="#e0ebfc"/><path d="m188.40625 134.605469-15.828125-42.964844v-71.644531c0-8.835938-7.164063-16-16-16h-88.667969c-8.835937 0-16 7.164062-16 16v88.667968c0 8.835938 7.164063 16 16 16h74.4375l40.921875 15.074219c3.203125 1.183594 6.320313-1.929687 5.136719-5.132812zm0 0" fill="#e0ebfc"/><path d="m401.648438 78.660156-.019532-.007812c4.207032-3.222656 7.679688-7.730469 9.820313-13.324219 6.027343-15.730469-.628907-33.882813-14.871094-40.542969-10.167969-4.753906-21.449219-2.355468-29.265625 5.125-1.570312 1.503906-4.121094 1.574219-5.726562.105469-7.675782-7.03125-18.515626-9.316406-28.417969-4.902344-14.332031 6.390625-21.246094 24.351563-15.4375 40.121094 2.0625 5.605469 5.472656 10.152344 9.632812 13.433594l-.019531.011719 31.289062 25.757812c3.035157 2.5 7.535157 2.53125 10.609376.078125zm0 0" fill="#f9a7a7"/><path d="m158.164062 64.992188c0 25.40625-20.59375 46-46 46-25.402343 0-46-20.59375-46-46 0-25.402344 20.597657-46 46-46 25.40625 0 46 20.597656 46 46zm0 0" fill="#f9cfcf"/><path d="m142.566406 55.933594h-19.117187c-1.050781 0-1.902344-.851563-1.902344-1.902344v-19.121094c0-2.097656-1.699219-3.796875-3.800781-3.796875h-11.398438c-2.097656 0-3.800781 1.699219-3.800781 3.796875v19.121094c0 1.046875-.847656 1.898438-1.898437 1.898438h-18.882813c-2.097656 0-3.800781 1.703124-3.800781 3.800781v11.398437c0 2.097656 1.703125 3.800782 3.800781 3.800782h18.882813c1.050781 0 1.898437.851562 1.898437 1.898437v18.882813c0 2.097656 1.703125 3.800781 3.800781 3.800781h11.398438c2.101562 0 3.800781-1.703125 3.800781-3.800781v-18.878907c0-1.050781.851563-1.898437 1.902344-1.898437h19.117187c2.097656 0 3.800782-1.703125 3.800782-3.800782v-11.402343c0-2.097657-1.703126-3.796875-3.800782-3.796875zm0 0" fill="#f9a7a7"/><path d="m292.230469 144c-2.074219 0-4.085938-.816406-5.625-2.355469-2.234375-2.234375-2.945313-5.457031-1.851563-8.421875l15.582032-42.292968v-70.929688c0-11.027344 8.972656-20 20-20h88.667968c11.027344 0 20 8.972656 20 20v88.664062c0 11.03125-8.972656 20-20 20h-73.722656l-40.253906 14.832032c-.917969.339844-1.863282.503906-2.796875.503906zm28.109375-136c-6.621094 0-12 5.382812-12 12v71.640625c0 .472656-.085938.941406-.246094 1.382813l-15.828125 42.964843 40.921875-15.078125c.441406-.164062.910156-.25 1.378906-.25h74.441406c6.617188 0 12-5.378906 12-12v-88.660156c0-6.617188-5.382812-12-12-12zm0 0" fill="#3762cc"/><path d="m184.6875 144c-.933594 0-1.878906-.164062-2.796875-.503906l-40.253906-14.832032h-73.726563c-11.027344 0-20-8.972656-20-20v-88.664062c0-11.027344 8.972656-20 20-20h88.667969c11.03125 0 20 8.972656 20 20v70.929688l15.582031 42.292968c1.09375 2.964844.382813 6.1875-1.847656 8.421875-1.539062 1.539063-3.550781 2.355469-5.625 2.355469zm-.035156-8.011719-15.828125-42.960937c-.160157-.441406-.246094-.914063-.246094-1.382813v-71.644531c0-6.617188-5.378906-12-12-12h-88.667969c-6.617187 0-12 5.382812-12 12v88.664062c0 6.621094 5.382813 12 12 12h74.441406c.46875 0 .9375.085938 1.378907.25zm0 0" fill="#3762cc"/><path d="m169.089844 221.265625-44.128906-20.371094v-20.164062c0-8.835938-7.164063-16-16-16h-88.667969c-8.835938 0-16 7.164062-16 16v88.664062c0 8.835938 7.164062 16 16 16h88.664062c8.835938 0 16-7.164062 16-16v-20.5l44.132813-20.367187c3.097656-1.429688 3.097656-5.832032 0-7.261719zm0 0" fill="#e0ebfc"/><path d="m88.121094 249.078125c-6.960938 0-12.601563-5.640625-12.601563-12.601563 0-6.957031 5.640625-12.597656 12.601563-12.597656h10.105468v-14.308594c0-4.636718-3.761718-8.398437-8.402343-8.398437h-13.3125v-10.105469c0-6.957031-5.640625-12.601562-12.601563-12.601562-6.957031 0-12.597656 5.644531-12.597656 12.601562v10.105469h-11.886719c-4.640625 0-8.398437 3.761719-8.398437 8.398437v50.402344c0 4.640625 3.757812 8.398438 8.398437 8.398438h50.398438c4.640625 0 8.402343-3.757813 8.402343-8.398438v-10.894531zm0 0" fill="#6bdddd"/><path d="m108.957031 289.394531h-88.664062c-11.027344 0-20-8.96875-20-20v-88.664062c0-11.027344 8.972656-20 20-20h88.664062c11.027344 0 20 8.972656 20 20v17.609375l41.808594 19.292968c2.867187 1.324219 4.644531 4.105469 4.644531 7.261719 0 3.160157-1.78125 5.941407-4.644531 7.265625l-41.808594 19.296875v17.9375c0 11.03125-8.972656 20-20 20zm-88.664062-120.664062c-6.617188 0-12 5.382812-12 12v88.664062c0 6.621094 5.382812 12 12 12h88.664062c6.617188 0 12-5.378906 12-12v-20.5c0-1.558593.90625-2.976562 2.324219-3.628906l44.128906-20.371094-44.128906-20.367187c-1.417969-.652344-2.324219-2.070313-2.324219-3.632813v-20.164062c0-6.617188-5.382812-12-12-12zm0 0" fill="#3762cc"/><path d="m457.375 164.355469h-88.664062c-8.835938 0-16 7.164062-16 16v20.167969l-44.132813 20.367187c-3.097656 1.429687-3.097656 5.835937 0 7.265625l44.128906 20.367188v20.5c0 8.835937 7.164063 16 16 16h88.667969c8.835938 0 16-7.164063 16-16v-88.667969c0-8.835938-7.164062-16-16-16zm0 0" fill="#e0ebfc"/><path d="m458.726562 224.621094c0 25.019531-20.28125 45.300781-45.296874 45.300781-25.019532 0-45.300782-20.28125-45.300782-45.300781 0-25.019532 20.28125-45.300782 45.300782-45.300782 25.015624 0 45.296874 20.28125 45.296874 45.300782zm0 0" fill="#ffea92"/><path d="m403.316406 226.542969c-1.730468 0-3.132812-1.402344-3.132812-3.132813 0-3.265625-2.65625-5.925781-5.925782-5.925781-3.269531 0-5.925781 2.65625-5.925781 5.925781 0 1.730469-1.402343 3.132813-3.136719 3.132813-1.730468 0-3.132812-1.402344-3.132812-3.132813 0-6.722656 5.46875-12.195312 12.195312-12.195312 6.722657 0 12.195313 5.46875 12.195313 12.195312 0 1.730469-1.402344 3.132813-3.136719 3.132813zm0 0" fill="#f9a7a7"/><path d="m440.609375 226.542969c-1.730469 0-3.132813-1.402344-3.132813-3.132813 0-3.265625-2.660156-5.925781-5.929687-5.925781-3.265625 0-5.921875 2.65625-5.921875 5.925781 0 1.730469-1.402344 3.132813-3.136719 3.132813s-3.132812-1.402344-3.132812-3.132813c0-6.722656 5.46875-12.195312 12.191406-12.195312 6.726563 0 12.199219 5.46875 12.199219 12.195312 0 1.730469-1.402344 3.132813-3.136719 3.132813zm0 0" fill="#f9a7a7"/><path d="m413.429688 246.445312c-6.726563 0-12.195313-5.472656-12.195313-12.195312 0-1.730469 1.402344-3.132812 3.132813-3.132812 1.734374 0 3.136718 1.402343 3.136718 3.132812 0 3.265625 2.65625 5.925781 5.925782 5.925781 3.269531 0 5.925781-2.660156 5.925781-5.925781 0-1.730469 1.402343-3.132812 3.132812-3.132812 1.734375 0 3.136719 1.402343 3.136719 3.132812 0 6.722656-5.472656 12.195312-12.195312 12.195312zm0 0" fill="#f9a7a7"/><path d="m457.375 289.023438h-88.664062c-11.027344 0-20-8.972657-20-20v-17.9375l-41.808594-19.296876c-2.867188-1.324218-4.644532-4.105468-4.644532-7.265624 0-3.15625 1.78125-5.9375 4.644532-7.261719l41.808594-19.296875v-17.609375c0-11.027344 8.972656-20 20-20h88.664062c11.027344 0 20 8.972656 20 20v88.667969c0 11.027343-8.972656 20-20 20zm-88.664062-120.667969c-6.617188 0-12 5.382812-12 12v20.167969c0 1.558593-.90625 2.976562-2.324219 3.628906l-44.128907 20.371094 44.128907 20.367187c1.417969.652344 2.324219 2.070313 2.324219 3.632813v20.5c0 6.617187 5.382812 12 12 12h88.664062c6.617188 0 12-5.382813 12-12v-88.667969c0-6.617188-5.382812-12-12-12zm0 0" fill="#3762cc"/><path d="m252.839844 250.117188c-.429688-.003907-.855469.007812-1.273438.03125-5.246094.28125-10.257812 2.621093-13.746094 6.414062-.191406.210938-.378906.421875-.570312.652344-.777344-1.191406-1.675781-2.28125-2.675781-3.257813-.253907-.25-.515625-.492187-.785157-.726562-3.960937-3.449219-9.074218-5.191407-14.394531-4.90625-5.324219.289062-10.203125 2.570312-13.75 6.429687-1.335937 1.453125-1.273437 3.675782.140625 5.058594l.15625.144531c.757813.660157 1.726563.992188 2.742188.9375 1.007812-.054687 1.9375-.492187 2.613281-1.222656 2.199219-2.394531 5.226563-3.808594 8.519531-3.988281 3.292969-.175782 6.460938.902344 8.917969 3.042968.175781.15625.347656.3125.511719.472657 2.3125 2.257812 3.621094 5.390625 3.601562 8.601562-.484375 5.394531 1.347656 10.660157 5.007813 14.632813.398437-.078125.792969-.140625 1.191406-.226563l3.933594-.890625c.730469.492188 1.539062.941406 2.394531 1.347656.597656-1.351562.339844-2.964843-.777344-4.058593l-.160156-.148438c-.183594-.15625-.359375-.320312-.527344-.484375-2.132812-2.085937-3.402344-4.859375-3.570312-7.808594-.183594-3.207031.929687-6.289062 3.125-8.679687 2.359375-2.570313 5.757812-4.019531 9.320312-3.992187 2.085938-.003907 3.792969-1.640626 3.8125-3.65625.007813-.996094-.382812-1.929688-1.105468-2.632813-.707032-.691406-1.648438-1.074219-2.652344-1.085937zm0 0" fill="#3762cc"/><path d="m308.007812 216.136719c-.273437-1.726563-.722656-3.394531-1.3125-4.996094-.1875-.023437-.378906-.046875-.570312-.042969-.425781.003906-.851562.023438-1.269531.058594-5.238281.410156-10.183594 2.875-13.574219 6.753906-.1875.214844-.371094.433594-.554688.667969-.808593-1.171875-1.734374-2.242187-2.757812-3.195313-.261719-.242187-.527344-.476562-.804688-.703124-4.046874-3.355469-9.203124-4.96875-14.515624-4.546876-5.3125.417969-10.132813 2.820313-13.578126 6.765626-1.296874 1.488281-1.179687 3.710937.273438 5.054687l.160156.144531c.773438.636719 1.753906.945313 2.761719.867188 1.007813-.082032 1.925781-.539063 2.582031-1.289063 2.132813-2.445312 5.121094-3.9375 8.410156-4.195312 3.289063-.257813 6.484376.742187 8.996094 2.820312.179688.148438.355469.300781.523438.460938 2.367187 2.195312 3.757812 5.292969 3.824218 8.507812-.363281 5.746094 1.859376 11.300781 6.097657 15.238281.277343.257813.5625.507813.855469.75.769531.636719 1.753906.945313 2.761718.867188 1.007813-.082031 1.925782-.539062 2.582032-1.289062 1.300781-1.488282 1.179687-3.710938-.269532-5.054688l-.164062-.144531c-.183594-.15625-.363282-.3125-.535156-.472657-2.191407-2.03125-3.53125-4.773437-3.777344-7.714843-.265625-3.203125.761718-6.3125 2.898437-8.757813 2.292969-2.628906 5.648438-4.164062 9.214844-4.21875 1.222656-.03125 2.296875-.636718 2.972656-1.535156-.46875-.316406-.898437-.59375-1.230469-.800781zm0 0" fill="#3762cc"/><path d="m228.019531 216.160156c.496094-.859375.613281-1.867187.335938-2.839844-.277344-.957031-.902344-1.761718-1.769531-2.265624-.371094-.214844-.742188-.417969-1.121094-.605469-4.6875-2.359375-10.183594-2.8125-15.074219-1.242188-.269531.085938-.539063.179688-.816406.285157-.089844-1.425782-.328125-2.824219-.714844-4.171876-.097656-.34375-.207031-.683593-.324219-1.019531-1.742187-4.976562-5.320312-9.03125-10.074218-11.429687-.859376-.429688-1.742188-.777344-2.632813-1.082032-.332031.554688-.640625 1.117188-.933594 1.695313-.40625.375-.726562.683594-.960937.921875-.636719-.039062-1.269532-.09375-1.914063-.09375-3.871093 0-7.554687.738281-10.921875 2.0625.339844.925781 1.003906 1.675781 1.890625 2.125.90625.453125 1.921875.535156 2.871094.230469 3.082031-.988281 6.402344-.71875 9.347656.761719 2.941407 1.480468 5.160157 3.996093 6.238281 7.082031.078126.222656.148438.445312.210938.667969.894531 3.113281.492188 6.492187-1.105469 9.28125-3.261719 4.746093-4.21875 10.664062-2.617187 16.242187.101562.363281.21875.722656.34375 1.085937.332031.945313 1.011718 1.71875 1.917968 2.175782.902344.453125 1.921876.535156 2.867188.230468 1.878906-.601562 2.917969-2.570312 2.371094-4.476562l-.066406-.207031c-.078126-.226563-.152344-.457031-.21875-.683594-.824219-2.875-.5625-5.925781.742187-8.578125 1.417969-2.882812 3.894531-5.019531 6.980469-6.011719 3.308594-1.0625 6.96875-.644531 10.042968 1.15625 1.808594 1.03125 4.097657.449219 5.105469-1.296875zm0 0" fill="#3762cc"/></svg>