<?xml version="1.0" encoding="iso-8859-1"?>
<!-- Generator: Adobe Illustrator 19.0.0, SVG Export Plug-In . SVG Version: 6.00 Build 0)  -->
<svg version="1.1" id="Layer_1" xmlns="http://www.w3.org/2000/svg" xmlns:xlink="http://www.w3.org/1999/xlink" x="0px" y="0px"
	 viewBox="0 0 512.001 512.001" style="enable-background:new 0 0 512.001 512.001;" xml:space="preserve">
<path style="fill:#F29A36;" d="M411.826,94.609c0,18.365-15.026,33.391-33.391,33.391h-72.348l-24.932,18.699l-8.459-3.562
	l-62.553-26.713l62.553-46.859l2.226-1.67c5.788-4.341,12.911-6.678,20.035-6.678h83.478
	C396.8,61.217,411.826,76.243,411.826,94.609z"/>
<path style="fill:#E7812E;" d="M411.826,94.609c0,18.365-15.026,33.391-33.391,33.391h-72.348l-24.932,18.699l-8.459-3.562V69.565
	l2.226-1.67c5.788-4.341,12.911-6.678,20.035-6.678h83.478C396.8,61.217,411.826,76.243,411.826,94.609z"/>
<path style="fill:#F9BC35;" d="M333.913,272.696l-61.217-16.028l-3.452-0.89l-3.227,0.445c-2.783-21.37-10.909-42.073-23.374-59.881
	l-9.907-14.136l-45.745,34.281c-5.788,4.341-12.911,6.678-20.035,6.678H83.478c-18.365,0-33.391-15.026-33.391-33.391
	s15.026-33.391,33.391-33.391h72.348l57.878-43.409c11.353-8.458,26.603-8.57,36.508-2.449c7.903,5.343,15.471,11.464,22.483,18.365
	C310.205,164.619,333.69,218.379,333.913,272.696z"/>
<path style="fill:#F39E31;" d="M333.913,272.696l-61.217-16.028V128.89C310.205,164.619,333.69,218.379,333.913,272.696z"/>
<path style="fill:#54CCFF;" d="M491.297,249.099c-12.911,3.228-25.489,8.125-37.287,14.47c-36.843,19.923-80.918,19.923-117.761,0
	c-19.923-10.797-41.628-16.918-63.555-18.477c-29.273-2.226-58.991,4.007-85.816,18.477c-36.843,19.923-80.918,19.923-117.761,0
	c-15.692-8.459-32.387-14.136-49.751-17.03C9.239,244.87,0,252.772,0,263.012v215.596c0,9.238,7.456,16.696,16.696,16.696h478.609
	c9.239,0,16.696-7.457,16.696-16.696V265.35C512,254.553,501.983,246.539,491.297,249.099z"/>
<path style="fill:#4BB8E6;" d="M512,265.35v213.259c0,9.238-7.456,16.696-16.696,16.696H272.696V245.092
	c21.927,1.558,43.63,7.68,63.555,18.477c36.843,19.923,80.918,19.923,117.761,0c11.797-6.344,24.375-11.242,37.287-14.47
	C501.983,246.539,512,254.553,512,265.35z"/>
<path style="fill:#5AF1FF;" d="M469.816,292.953c-46.748,25.266-102.623,25.266-149.369,0c-15.027-8.125-31.278-12.911-47.75-14.358
	c-23.819-2.226-48.196,2.56-70.01,14.358c-46.748,25.266-102.623,25.266-149.369,0c-6.457-3.45-13.135-6.344-19.923-8.682v177.642
	h445.217V288.612C475.603,289.948,472.71,291.395,469.816,292.953z"/>
<path style="fill:#51DAE6;" d="M478.609,288.612v173.301H272.696V278.595c16.473,1.447,32.722,6.233,47.75,14.358
	c46.748,25.266,102.623,25.266,149.369,0C472.71,291.395,475.603,289.948,478.609,288.612z"/>
<path style="fill:#DAE2F2;" d="M372.846,245.043c-7.837,0-14.837-5.554-16.37-13.544c-2.044-10.625-4.815-21.222-8.229-31.511
	c-2.902-8.75,1.837-18.202,10.587-21.103c8.772-2.897,18.196,1.837,21.109,10.593c3.87,11.652,7,23.669,9.315,35.706
	c1.75,9.055-4.185,17.81-13.24,19.554C374.955,244.94,373.9,245.043,372.846,245.043z"/>
<path style="fill:#54CCFF;" d="M389.12,452.118c-13.133,13.134-34.169,13.023-47.193,0c-31.054-31.054-42.963-56.543-69.12-103.847
	c0,0.334-0.111,0.668-0.111,1.002c-6.345,54.094-7.345,60.327-7.345,73.461c0,25.6-14.805,39.179-33.503,39.179
	c-18.366,0-33.28-15.026-33.28-33.391c0-49.753,10.128-90.824,17.362-107.854c10.017-4.341,31.164-9.127,49.42-9.127
	c2.449,0,4.896,0.111,7.345,0.223c34.172,1.892,58.769,16.473,73.351,22.929c10.239,24.598,25.376,51.311,43.853,71.123
	C402.254,418.95,401.92,439.318,389.12,452.118z"/>
<path style="fill:#F9BC35;" d="M194.783,116.87c-27.619,0-50.087-22.468-50.087-50.087s22.468-50.087,50.087-50.087
	s50.087,22.468,50.087,50.087S222.402,116.87,194.783,116.87z"/>
<path style="fill:#4BB8E6;" d="M389.12,452.118c-13.133,13.134-34.169,13.023-47.193,0c-31.054-31.054-42.963-56.543-69.12-103.847
	c0,0.334-0.111,0.668-0.111,1.002v-37.51c34.172,1.892,58.769,16.473,73.351,22.929c10.239,24.598,25.376,51.311,43.853,71.123
	C402.254,418.95,401.92,439.318,389.12,452.118z"/>
<g>
</g>
<g>
</g>
<g>
</g>
<g>
</g>
<g>
</g>
<g>
</g>
<g>
</g>
<g>
</g>
<g>
</g>
<g>
</g>
<g>
</g>
<g>
</g>
<g>
</g>
<g>
</g>
<g>
</g>
</svg>
