<svg height="496pt" viewBox="0 0 496 496" width="496pt" xmlns="http://www.w3.org/2000/svg"><path d="m280 160c0-36.878906 19.199219-69.28125 48.160156-87.679688l-.160156-.320312v-64h-320v480h320v-240l.160156-.320312c-28.960937-18.398438-48.160156-50.800782-48.160156-87.679688zm0 0" fill="#ffeaa7"/><path d="m272 120.558594v3.441406c0 7.921875-1.679688 15.761719-4.878906 22.960938l-4.882813 11.039062c-14.71875 33.121094-24.238281 68.320312-28.316406 104.398438-.480469 4.960937-2.882813 9.441406-6.402344 12.5625-3.519531 3.117187-8.160156 5.039062-13.28125 5.039062-8.476562 0-16.078125-5.441406-18.71875-13.519531l-16.960937-50.878907c-1.519532-4.5625-5.757813-7.601562-10.558594-7.601562s-9.039062 3.039062-10.558594 7.601562l-16.960937 50.878907c-2.640625 8.078125-10.242188 13.519531-18.71875 13.519531-5.121094 0-9.761719-1.921875-13.28125-5.039062-3.519531-3.121094-5.921875-7.601563-6.402344-12.5625-4.078125-36.078126-13.597656-71.277344-28.316406-104.398438l-4.882813-11.039062c-3.199218-7.199219-4.878906-15.039063-4.878906-22.960938v-3.441406c0-15.597656 6.320312-29.757813 16.558594-40 10.242187-10.238282 24.402344-16.558594 40-16.558594 15.042968 0 29.441406 6 40 16.558594l7.441406 7.441406 7.441406-7.441406c10.558594-10.558594 24.957032-16.558594 40-16.558594 31.199219 0 56.558594 25.359375 56.558594 56.558594zm0 0" fill="#e6e9ed"/><path d="m408 344v120c0 13.28125-10.71875 24-24 24-6.640625 0-12.640625-2.71875-16.960938-7.039062-4.320312-4.320313-7.039062-10.320313-7.039062-16.960938v-120zm0 0" fill="#cf9e76"/><path d="m408 312v32h-48v-32zm0 0" fill="#fcd770"/><path d="m400 262.800781v49.199219h-32v-49.199219c5.199219.800781 10.558594 1.199219 16 1.199219s10.800781-.398438 16-1.199219zm0 0" fill="#aab2bd"/><path d="m400 262.800781c-5.199219.800781-10.558594 1.199219-16 1.199219s-10.800781-.398438-16-1.199219c-14.480469-2.242187-28-7.519531-39.839844-15.121093-28.960937-18.398438-48.160156-50.800782-48.160156-87.679688s19.199219-69.28125 48.160156-87.679688c16.078125-10.320312 35.28125-16.320312 55.839844-16.320312 57.441406 0 104 46.558594 104 104 0 52-38.160156 95.121094-88 102.800781zm0 0" fill="#69d6f4"/><path d="m432 144v32h-32v32h-32v-32h-32v-32h32v-32h32v32zm0 0" fill="#e6e9ed"/><path d="m168 120c-18.382812 0-24.640625-11.207031-24.894531-11.679688l-14.257813 7.265626c.417969.820312 10.535156 20.414062 39.152344 20.414062s38.734375-19.59375 39.160156-20.425781l-14.257812-7.261719c-.261719.480469-6.519532 11.6875-24.902344 11.6875zm0 0"/><path d="m496 160c0-61.761719-50.238281-112-112-112-17.191406 0-33.425781 4.007812-48 10.960938v-58.960938h-336v496h336v-234.960938c7.585938 3.617188 15.601562 6.464844 24 8.304688v34.65625h-8v160c0 17.648438 14.351562 32 32 32s32-14.351562 32-32v-160h-8v-34.65625c50.257812-11.023438 88-55.832031 88-109.34375zm-16 0c0 52.9375-43.0625 96-96 96s-96-43.0625-96-96 43.0625-96 96-96 96 43.0625 96 96zm-160 320h-304v-464h304v52.214844c-17.894531 12.511718-31.929688 30.105468-40.089844 50.679687-.894531-34.824219-29.4375-62.894531-64.476562-62.894531-17.25 0-33.464844 6.71875-45.65625 18.910156l-1.777344 1.777344-1.777344-1.777344c-12.191406-12.191406-28.40625-18.910156-45.65625-18.910156-35.597656 0-64.566406 28.96875-64.566406 64.566406v3.433594c0 9.097656 1.871094 17.921875 5.558594 26.222656l4.90625 11.035156c14.40625 32.429688 23.703125 66.75 27.625 102.015626 1.566406 14.09375 13.445312 24.726562 27.636718 24.726562 11.992188 0 22.59375-7.640625 26.378907-19.007812l16.957031-50.871094c.839844-2.535156 5.042969-2.535156 5.882812 0l16.957032 50.863281c3.777344 11.375 14.378906 19.015625 26.371094 19.015625 14.183593 0 26.070312-10.632812 27.628906-24.734375 3.921875-35.265625 13.21875-69.585937 27.632812-102.019531l2.710938-6.101563c-.070313 1.625-.246094 3.214844-.246094 4.855469 0 37.960938 19.023438 71.519531 48 91.785156zm-56-359.433594v3.433594c0 6.839844-1.40625 13.480469-4.183594 19.71875l-4.90625 11.035156c-15.078125 33.933594-24.804687 69.847656-28.902344 106.75-.671874 5.984375-5.710937 10.496094-11.734374 10.496094-5.089844 0-9.59375-3.238281-11.195313-8.070312l-16.957031-50.875c-2.609375-7.808594-9.890625-13.054688-18.121094-13.054688s-15.511719 5.246094-18.121094 13.054688l-16.957031 50.882812c-1.601563 4.824219-6.105469 8.0625-11.195313 8.0625-6.023437 0-11.0625-4.511719-11.734374-10.496094-4.097657-36.894531-13.824219-72.816406-28.902344-106.75l-4.90625-11.035156c-2.777344-6.246094-4.183594-12.886719-4.183594-19.71875v-3.425781c0-26.78125 21.792969-48.574219 48.566406-48.574219 12.976563 0 25.167969 5.046875 34.34375 14.222656l13.089844 13.089844 13.089844-13.089844c9.175781-9.175781 21.367187-14.222656 34.34375-14.222656 26.773437 0 48.566406 21.792969 48.566406 48.566406zm136 199.433594v16h-32v-16zm-16 160c-8.824219 0-16-7.175781-16-16v-112h32v112c0 8.824219-7.175781 16-16 16zm8-176h-16v-32.40625c2.65625.191406 5.296875.40625 8 .40625s5.34375-.214844 8-.40625zm0 0"/><path d="m360 216h48v-32h32v-48h-32v-32h-48v32h-32v48h32zm-16-48v-16h32v-32h16v32h32v16h-32v32h-16v-32zm0 0"/><path d="m32 304h272v16h-272zm0 0"/><path d="m80 336h224v16h-224zm0 0"/><path d="m32 336h32v16h-32zm0 0"/><path d="m32 400h272v16h-272zm0 0"/><path d="m288 432h16v16h-16zm0 0"/><path d="m32 432h240v16h-240zm0 0"/><path d="m288 368h16v16h-16zm0 0"/><path d="m256 368h16v16h-16zm0 0"/><path d="m176 368h64v16h-64zm0 0"/><path d="m96 368h64v16h-64zm0 0"/><path d="m64 368h16v16h-16zm0 0"/><path d="m32 368h16v16h-16zm0 0"/></svg>